<svg width="59" height="59" viewBox="0 0 59 59" fill="none" xmlns="http://www.w3.org/2000/svg">
<path fill-rule="evenodd" clip-rule="evenodd" d="M38.357 33.7774C38.9827 32.4842 39.3334 31.0332 39.3334 29.5003C39.3334 24.0695 34.9309 19.667 29.5001 19.667C27.9672 19.667 26.5162 20.0177 25.223 20.6434L38.357 33.7774ZM22.7175 22.3805C20.838 24.1715 19.6667 26.6992 19.6667 29.5003C19.6667 34.9311 24.0693 39.3337 29.5001 39.3337C32.3013 39.3337 34.8289 38.1624 36.6199 36.2829L22.7175 22.3805Z" fill="white"/>
<path fill-rule="evenodd" clip-rule="evenodd" d="M43.1649 38.5853C46.8387 35.6195 49.5751 32.2633 50.8428 30.5818C51.2183 30.0837 51.4061 29.8347 51.4061 29.5C51.4061 29.1653 51.2183 28.9163 50.8428 28.4182C48.2769 25.0147 39.6935 14.75 29.5 14.75C26.6344 14.75 23.896 15.5612 21.3828 16.8032L43.1649 38.5853ZM18.682 18.3449C13.5832 21.6442 9.734 26.3267 8.15723 28.4182C7.78174 28.9163 7.59399 29.1653 7.59399 29.5C7.59399 29.8347 7.78174 30.0837 8.15723 30.5818C10.7231 33.9853 19.3065 44.25 29.5 44.25C33.597 44.25 37.4339 42.5919 40.7245 40.3875L18.682 18.3449Z" fill="#7E869E" fill-opacity="0.25"/>
<path fill-rule="evenodd" clip-rule="evenodd" d="M38.357 33.7774C38.9827 32.4842 39.3334 31.0332 39.3334 29.5003C39.3334 24.0695 34.9309 19.667 29.5001 19.667C27.9672 19.667 26.5162 20.0177 25.223 20.6434L38.357 33.7774ZM22.7175 22.3805C20.838 24.1715 19.6667 26.6992 19.6667 29.5003C19.6667 34.9311 24.0693 39.3337 29.5001 39.3337C32.3013 39.3337 34.8289 38.1624 36.6199 36.2829L22.7175 22.3805Z" fill="white"/>
<path d="M19.6667 12.292L49.1667 41.792" stroke="white" stroke-width="1.2"/>
</svg>
