<svg width="152" height="152" viewBox="0 0 152 152" fill="none" xmlns="http://www.w3.org/2000/svg">
<path fill-rule="evenodd" clip-rule="evenodd" d="M97.5195 89.3746C99.848 85.5577 101.19 81.0728 101.19 76.2745C101.19 62.3627 89.9119 51.085 76.0001 51.085C71.2018 51.085 66.7169 52.4266 62.9 54.7551L64.359 56.2142C67.7803 54.2245 71.7571 53.085 76.0001 53.085C88.8073 53.085 99.1896 63.4673 99.1896 76.2745C99.1896 80.5175 98.0501 84.4942 96.0604 87.9156L97.5195 89.3746ZM61.8237 57.9214C56.3408 62.1627 52.8105 68.8063 52.8105 76.2745C52.8105 89.0817 63.1929 99.464 76.0001 99.464C83.4683 99.464 90.1119 95.9337 94.3532 90.4509L95.778 91.8758C91.1649 97.7159 84.0202 101.464 76.0001 101.464C62.0883 101.464 50.8105 90.1863 50.8105 76.2745C50.8105 68.2544 54.5587 61.1097 60.3988 56.4966L61.8237 57.9214Z" fill="#333333"/>
<path fill-rule="evenodd" clip-rule="evenodd" d="M109.864 101.72C111.114 100.759 112.324 99.778 113.491 98.788C123.486 90.3107 130.487 81.0626 132.729 77.9409L132.753 77.9068C132.914 77.683 133.083 77.4479 133.205 77.2252C133.349 76.9607 133.463 76.6512 133.463 76.2745C133.463 75.8979 133.349 75.5884 133.205 75.3239C133.083 75.1012 132.914 74.8661 132.753 74.6422L132.729 74.6081C130.487 71.4864 123.486 62.2384 113.491 53.761C103.515 45.3005 90.4181 37.4902 76 37.4902C67.5163 37.4902 59.49 40.1943 52.2879 44.1438L53.7629 45.6188C60.6032 41.9468 68.1248 39.4902 76 39.4902C89.7149 39.4902 102.357 46.941 112.197 55.2863C122.017 63.6149 128.908 72.7174 131.104 75.7748C131.198 75.9045 131.27 76.0049 131.33 76.0931C131.386 76.1763 131.422 76.2332 131.445 76.2745C131.422 76.3159 131.386 76.3728 131.33 76.456C131.27 76.5442 131.198 76.6445 131.104 76.7742C128.909 79.8316 122.017 88.9342 112.197 97.2627C110.985 98.2905 109.731 99.3048 108.437 100.293L109.864 101.72ZM107.429 103.527L105.995 102.093C97.2762 108.282 86.9819 113.059 76 113.059C62.285 113.059 49.6426 105.608 39.8028 97.2627C29.9827 88.9342 23.0914 79.8317 20.8955 76.7743C20.8024 76.6446 20.7304 76.5442 20.6702 76.456C20.6134 76.3728 20.578 76.3159 20.555 76.2745C20.578 76.2332 20.6134 76.1763 20.6702 76.0931C20.7303 76.0049 20.8024 75.9045 20.8955 75.7748C23.0914 72.7174 29.9827 63.6149 39.8028 55.2863C43.2369 52.3738 47.0124 49.5702 51.0557 47.1543L49.5987 45.6972C45.5931 48.1281 41.8736 50.9076 38.5091 53.7611C28.5136 62.2384 21.5132 71.4864 19.2711 74.6081L19.2466 74.6422C19.0857 74.866 18.9168 75.1012 18.7953 75.3239C18.6511 75.5884 18.5366 75.8979 18.5366 76.2745C18.5366 76.6512 18.6511 76.9607 18.7953 77.2252C18.9168 77.4479 19.0857 77.683 19.2466 77.9069L19.2467 77.907L19.2711 77.941C21.5132 81.0627 28.5136 90.3107 38.5092 98.788C48.4848 107.249 61.5818 115.059 76 115.059C87.6569 115.059 98.4501 109.954 107.429 103.527Z" fill="#333333"/>
<path d="M31.9182 13.3008L132.676 114.059" stroke="#333333" stroke-width="2"/>
</svg>
