<svg width="69" height="69" viewBox="0 0 69 69" fill="none" xmlns="http://www.w3.org/2000/svg">
<path d="M34.5489 11.8037C52.6905 11.8037 58.0386 26.4248 59.4311 32.0994C59.6681 33.065 59.7865 33.5477 59.4863 33.9306C59.186 34.3135 58.6596 34.3135 57.6068 34.3135H11.4909C10.4381 34.3135 9.91176 34.3135 9.61148 33.9306C9.3112 33.5477 9.42966 33.065 9.66659 32.0994C11.0591 26.4248 16.4073 11.8037 34.5489 11.8037Z" fill="#7E869E" fill-opacity="0.25"/>
<circle cx="34.5488" cy="31.5" r="11.2549" fill="white"/>
<path d="M16.2085 48.0312H15.1855V47.6016H17.7197V48.0312H16.6968V51H16.2085V48.0312ZM19.9414 50.3823V48.4805H20.4297V51H19.9902L19.9463 50.7339C19.7054 50.9373 19.4393 51.0391 19.1479 51.0391C18.8387 51.0391 18.6198 50.9536 18.4912 50.7827C18.3577 50.6086 18.291 50.3083 18.291 49.8818V48.4805H18.7793V49.8574C18.7793 50.1585 18.8224 50.3636 18.9087 50.4727C18.9852 50.5703 19.1309 50.6191 19.3457 50.6191C19.5622 50.6191 19.7607 50.5402 19.9414 50.3823ZM22.8198 48.9272C22.7303 48.9012 22.6229 48.8882 22.4976 48.8882C22.3739 48.8882 22.2721 48.9012 22.1924 48.9272C22.1126 48.9517 22.0426 48.9818 21.9824 49.0176C21.8717 49.0827 21.7912 49.1559 21.7407 49.2373V51H21.2524V48.4805H21.7212L21.7407 48.8296C21.8628 48.6766 22.041 48.5618 22.2754 48.4854C22.36 48.4561 22.4569 48.4414 22.5659 48.4414C22.675 48.4414 22.7596 48.4495 22.8198 48.4658V48.9272ZM24.4385 48.8613C24.196 48.8613 23.9803 48.9435 23.7915 49.1079V51H23.3032V48.4805H23.7549L23.7891 48.7539C24.0544 48.5456 24.3286 48.4414 24.6118 48.4414C24.9113 48.4414 25.131 48.5309 25.271 48.71C25.4175 48.8988 25.4907 49.2031 25.4907 49.623V51H25.0024V49.623C25.0024 49.2194 24.8934 48.9785 24.6753 48.9004C24.6053 48.8743 24.5264 48.8613 24.4385 48.8613ZM27.7246 49.7354C27.7246 49.3398 27.8507 49.0192 28.103 48.7734C28.339 48.5439 28.6312 48.4292 28.9795 48.4292C29.3213 48.4292 29.6069 48.5439 29.8364 48.7734C30.0806 49.0176 30.2026 49.3382 30.2026 49.7354C30.2026 50.1309 30.0798 50.4499 29.834 50.6924C29.6012 50.9235 29.3156 51.0391 28.9771 51.0391C28.6336 51.0391 28.3423 50.9235 28.103 50.6924C27.8507 50.4499 27.7246 50.1309 27.7246 49.7354ZM28.2324 49.7354C28.2324 50.152 28.3659 50.4352 28.6328 50.585C28.7272 50.637 28.8403 50.6631 28.9722 50.6631C29.104 50.6631 29.2155 50.637 29.3066 50.585C29.3978 50.5312 29.4727 50.4613 29.5312 50.375C29.6403 50.209 29.6948 49.9958 29.6948 49.7354C29.6948 49.3219 29.5638 49.0387 29.3018 48.8857C29.2106 48.832 29.1016 48.8052 28.9746 48.8052C28.8477 48.8052 28.737 48.832 28.6426 48.8857C28.5498 48.9378 28.4733 49.007 28.4131 49.0933C28.2926 49.2625 28.2324 49.4766 28.2324 49.7354ZM31.9385 48.8613C31.696 48.8613 31.4803 48.9435 31.2915 49.1079V51H30.8032V48.4805H31.2549L31.2891 48.7539C31.5544 48.5456 31.8286 48.4414 32.1118 48.4414C32.4113 48.4414 32.631 48.5309 32.771 48.71C32.9175 48.8988 32.9907 49.2031 32.9907 49.623V51H32.5024V49.623C32.5024 49.2194 32.3934 48.9785 32.1753 48.9004C32.1053 48.8743 32.0264 48.8613 31.9385 48.8613ZM37.6953 50.9805C37.5342 51.0098 37.3169 51.0244 37.0435 51.0244C36.7716 51.0244 36.5259 50.987 36.3062 50.9121C36.0881 50.8372 35.9001 50.7266 35.7422 50.5801C35.4036 50.266 35.2344 49.8281 35.2344 49.2666C35.2344 48.9004 35.3215 48.583 35.4956 48.3145C35.7316 47.9515 36.0938 47.7204 36.582 47.6211C36.7318 47.5918 36.91 47.5771 37.1167 47.5771C37.325 47.5771 37.4919 47.5885 37.6172 47.6113V48.0776C37.5033 48.0418 37.3267 48.0239 37.0874 48.0239C36.8498 48.0239 36.6479 48.0532 36.4819 48.1118C36.3159 48.1704 36.1784 48.2542 36.0693 48.3633C35.8512 48.5765 35.7422 48.8776 35.7422 49.2666C35.7422 49.6589 35.8496 49.9697 36.0645 50.1992C36.2972 50.4466 36.6317 50.5703 37.0679 50.5703C37.3234 50.5703 37.5326 50.5508 37.6953 50.5117V50.9805ZM38.4204 50.5508C38.3667 50.458 38.3236 50.349 38.291 50.2236C38.2601 50.0983 38.2446 49.9347 38.2446 49.7329C38.2446 49.5311 38.2878 49.3455 38.374 49.1763C38.4619 49.0054 38.5758 48.8654 38.7158 48.7563C38.9876 48.5464 39.3254 48.4414 39.729 48.4414C39.939 48.4414 40.0977 48.4463 40.2051 48.4561C40.2051 48.4561 40.284 48.4642 40.4419 48.4805V51H40.0024L39.9829 50.7095C39.8853 50.8397 39.7363 50.9365 39.5361 51C39.4596 51.0244 39.3807 51.0366 39.2993 51.0366C39.2196 51.0366 39.1406 51.0285 39.0625 51.0122C38.9844 50.9959 38.9062 50.9691 38.8281 50.9316C38.7516 50.8942 38.6784 50.8446 38.6084 50.7827C38.5384 50.7192 38.4757 50.6419 38.4204 50.5508ZM39.9536 48.8394C39.8494 48.8263 39.7453 48.8198 39.6411 48.8198C39.5386 48.8198 39.4287 48.8385 39.3115 48.876C39.1943 48.9118 39.0942 48.9688 39.0112 49.0469C38.8387 49.2096 38.7524 49.4578 38.7524 49.7915C38.7524 50.1073 38.8265 50.3408 38.9746 50.4922C39.0869 50.6045 39.222 50.6606 39.3799 50.6606C39.5833 50.6606 39.751 50.5866 39.8828 50.4385C39.9154 50.401 39.939 50.3677 39.9536 50.3384V48.8394ZM41.7212 49.1079L41.7236 51H41.2354V48.4805H41.6846L41.7188 48.7563C41.8978 48.6066 42.1061 48.509 42.3438 48.4634C42.4202 48.4487 42.4951 48.4414 42.5684 48.4414C42.8727 48.4414 43.1022 48.57 43.2568 48.8271C43.54 48.57 43.8363 48.4414 44.1455 48.4414C44.4515 48.4414 44.6745 48.5334 44.8145 48.7173C44.9544 48.9045 45.0244 49.2137 45.0244 49.645V51H44.5361V49.6621C44.5361 49.2389 44.4344 48.9858 44.231 48.9028C44.1626 48.8752 44.0828 48.8613 43.9917 48.8613C43.7736 48.8613 43.5734 48.9395 43.3911 49.0957V51H42.9028V49.6426C42.9028 49.3529 42.8597 49.1494 42.7734 49.0322C42.6904 48.9183 42.5415 48.8613 42.3267 48.8613C42.1134 48.8613 41.9116 48.9435 41.7212 49.1079ZM46.9849 51.0391C46.0636 51.0391 45.603 50.589 45.603 49.689C45.603 49.3016 45.7308 48.9915 45.9863 48.7588C46.2158 48.5472 46.4779 48.4414 46.7725 48.4414C47.0931 48.4414 47.3438 48.5488 47.5244 48.7637C47.6921 48.9639 47.7759 49.2316 47.7759 49.5669V49.7573H46.1108C46.1108 50.2179 46.2988 50.4995 46.6748 50.6021C46.7643 50.6265 46.9019 50.6387 47.0874 50.6387C47.2746 50.6387 47.4577 50.6134 47.6367 50.563V50.9756C47.4577 51.0179 47.2404 51.0391 46.9849 51.0391ZM47.2876 49.3984C47.2876 49.2422 47.2445 49.1104 47.1582 49.0029C47.0573 48.8792 46.9181 48.8174 46.7407 48.8174C46.5535 48.8174 46.4014 48.8768 46.2842 48.9956C46.1768 49.1063 46.123 49.2406 46.123 49.3984H47.2876ZM49.9146 48.9272C49.825 48.9012 49.7176 48.8882 49.5923 48.8882C49.4686 48.8882 49.3669 48.9012 49.2871 48.9272C49.2074 48.9517 49.1374 48.9818 49.0771 49.0176C48.9665 49.0827 48.8859 49.1559 48.8354 49.2373V51H48.3472V48.4805H48.8159L48.8354 48.8296C48.9575 48.6766 49.1357 48.5618 49.3701 48.4854C49.4548 48.4561 49.5516 48.4414 49.6606 48.4414C49.7697 48.4414 49.8543 48.4495 49.9146 48.4658V48.9272ZM50.5103 50.5508C50.4565 50.458 50.4134 50.349 50.3809 50.2236C50.3499 50.0983 50.3345 49.9347 50.3345 49.7329C50.3345 49.5311 50.3776 49.3455 50.4639 49.1763C50.5518 49.0054 50.6657 48.8654 50.8057 48.7563C51.0775 48.5464 51.4152 48.4414 51.8188 48.4414C52.0288 48.4414 52.1875 48.4463 52.2949 48.4561C52.2949 48.4561 52.3739 48.4642 52.5317 48.4805V51H52.0923L52.0728 50.7095C51.9751 50.8397 51.8262 50.9365 51.626 51C51.5495 51.0244 51.4705 51.0366 51.3892 51.0366C51.3094 51.0366 51.2305 51.0285 51.1523 51.0122C51.0742 50.9959 50.9961 50.9691 50.918 50.9316C50.8415 50.8942 50.7682 50.8446 50.6982 50.7827C50.6283 50.7192 50.5656 50.6419 50.5103 50.5508ZM52.0435 48.8394C51.9393 48.8263 51.8351 48.8198 51.731 48.8198C51.6284 48.8198 51.5186 48.8385 51.4014 48.876C51.2842 48.9118 51.1841 48.9688 51.1011 49.0469C50.9285 49.2096 50.8423 49.4578 50.8423 49.7915C50.8423 50.1073 50.9163 50.3408 51.0645 50.4922C51.1768 50.6045 51.3118 50.6606 51.4697 50.6606C51.6732 50.6606 51.8408 50.5866 51.9727 50.4385C52.0052 50.401 52.0288 50.3677 52.0435 50.3384V48.8394Z" fill="#03363D"/>
</svg>
